<?xml version="1.0" ?><!DOCTYPE svg  PUBLIC '-//W3C//DTD SVG 1.1//EN'  'http://www.w3.org/Graphics/SVG/1.1/DTD/svg11.dtd'><svg height="100%" style="fill-rule:evenodd;clip-rule:evenodd;stroke-linejoin:round;stroke-miterlimit:2;" version="1.1" viewBox="0 0 128 128" width="100%" xml:space="preserve" xmlns="http://www.w3.org/2000/svg" xmlns:serif="http://www.serif.com/" xmlns:xlink="http://www.w3.org/1999/xlink"><g id="Icon"/><g><path d="M103.422,114.059c-1.07,-0.287 -2.172,0.349 -2.459,1.42c-0.287,1.07 0.349,2.172 1.42,2.459c1.07,0.287 2.172,-0.349 2.459,-1.42c0.287,-1.07 -0.35,-2.172 -1.42,-2.459Zm-78.844,0c1.07,-0.287 2.172,0.349 2.459,1.42c0.287,1.07 -0.349,2.172 -1.42,2.459c-1.07,0.287 -2.172,-0.349 -2.459,-1.42c-0.287,-1.07 0.35,-2.172 1.42,-2.459Zm-2.067,-7.712c5.327,-1.427 10.811,1.739 12.238,7.065c0.286,1.067 1.384,1.7 2.45,1.415c1.066,-0.286 1.7,-1.384 1.414,-2.45c-1.999,-7.459 -9.677,-11.892 -17.137,-9.894c-1.066,0.286 -1.7,1.384 -1.414,2.45c0.286,1.066 1.383,1.7 2.449,1.414Zm82.978,-0c-5.327,-1.427 -10.811,1.739 -12.238,7.065c-0.286,1.067 -1.384,1.7 -2.45,1.415c-1.066,-0.286 -1.7,-1.384 -1.414,-2.45c1.999,-7.459 9.677,-11.892 17.137,-9.894c1.066,0.286 1.7,1.384 1.414,2.45c-0.286,1.066 -1.383,1.7 -2.449,1.414Zm2.592,-9.675c-10.667,-2.858 -21.647,3.482 -24.505,14.148c-0.285,1.066 -1.383,1.7 -2.449,1.414c-1.066,-0.285 -1.7,-1.383 -1.414,-2.449c3.429,-12.799 16.604,-20.406 29.403,-16.976c1.066,0.285 1.7,1.383 1.414,2.449c-0.285,1.066 -1.383,1.7 -2.449,1.414Zm-88.162,0c10.667,-2.858 21.647,3.482 24.505,14.148c0.285,1.066 1.383,1.7 2.449,1.414c1.066,-0.285 1.7,-1.383 1.414,-2.449c-3.429,-12.799 -16.604,-20.406 -29.403,-16.976c-1.066,0.285 -1.7,1.383 -1.414,2.449c0.285,1.066 1.383,1.7 2.449,1.414Zm90.746,-9.644c-15.989,-4.284 -32.449,5.219 -36.733,21.208c-0.285,1.066 -1.383,1.7 -2.449,1.414c-1.066,-0.285 -1.7,-1.383 -1.414,-2.449c4.855,-18.122 23.51,-28.892 41.631,-24.036c1.066,0.285 1.7,1.383 1.414,2.449c-0.285,1.066 -1.383,1.7 -2.449,1.414Zm-93.33,0c15.989,-4.284 32.449,5.219 36.733,21.208c0.285,1.066 1.383,1.7 2.449,1.414c1.066,-0.285 1.7,-1.383 1.414,-2.449c-4.855,-18.122 -23.51,-28.892 -41.631,-24.036c-1.066,0.285 -1.7,1.383 -1.414,2.449c0.285,1.066 1.383,1.7 2.449,1.414Z" style="fill:#41b3e6;"/><path d="M23.149,55.143c-0.073,-0.574 -0.11,-1.158 -0.11,-1.752c-0,-7.574 6.149,-13.724 13.724,-13.724c6.546,-0 12.028,4.593 13.397,10.73c0.975,-0.284 2.006,-0.437 3.073,-0.437c6.06,0 10.98,4.92 10.98,10.98c-0,6.06 -4.92,10.98 -10.98,10.98l-34.312,-0c-4.924,-0 -8.921,-3.998 -8.921,-8.921c-0,-4.924 3.997,-8.921 8.921,-8.921c1.529,-0 2.969,0.385 4.228,1.065Z" style="fill:#eeefef;"/><path d="M107.864,63.988c0.057,-0.442 0.086,-0.893 0.086,-1.35c-0,-5.839 -4.74,-10.579 -10.579,-10.579c-5.046,0 -9.271,3.54 -10.326,8.271c-0.752,-0.219 -1.547,-0.337 -2.369,-0.337c-4.671,0 -8.463,3.793 -8.463,8.464c-0,4.671 3.792,8.463 8.463,8.463l26.448,-0c3.795,-0 6.876,-3.081 6.876,-6.877c0,-3.795 -3.081,-6.876 -6.876,-6.876c-1.179,0 -2.289,0.297 -3.26,0.821Z" style="fill:#eeefef;"/><path d="M92,57.667c0,-6.582 -13.084,-11.667 -28,-11.667c-14.916,-0 -28,5.085 -28,11.667l0,13.666c0,6.692 13.141,11.667 28,11.667c14.859,0 28,-5.044 28,-11.667l0,-13.666Z" style="fill:#616262;"/><ellipse cx="64" cy="57.667" rx="28" ry="11.667" style="fill:#767576;"/><path d="M92,39.667c0,-6.582 -13.084,-11.667 -28,-11.667c-14.916,-0 -28,5.085 -28,11.667l0,13.666c0,6.692 13.141,11.667 28,11.667c14.859,0 28,-5.044 28,-11.667l0,-13.666Z" style="fill:#616262;"/><ellipse cx="64" cy="39.667" rx="28" ry="11.667" style="fill:#767576;"/><path d="M92,21.667c0,-6.582 -13.084,-11.667 -28,-11.667c-14.916,-0 -28,5.085 -28,11.667l0,13.666c0,6.692 13.141,11.667 28,11.667c14.859,0 28,-5.044 28,-11.667l0,-13.666Z" style="fill:#1687c9;"/><ellipse cx="64" cy="21.667" rx="28" ry="11.667" style="fill:#41b3e6;"/></g><g><path d="M32,71l-13.079,-0c-4.374,-0 -7.921,-3.627 -7.921,-8.001c0,-4.372 3.549,-7.921 7.921,-7.921c1.358,-0 2.636,0.342 3.753,0.945c0.33,0.178 0.732,0.157 1.041,-0.056c0.309,-0.212 0.474,-0.579 0.426,-0.951c-0.068,-0.532 -0.102,-1.074 -0.102,-1.625c-0,-5.47 3.459,-10.139 8.308,-11.936c0.518,-0.192 0.782,-0.768 0.591,-1.285c-0.192,-0.518 -0.768,-0.782 -1.285,-0.591c-5.611,2.08 -9.614,7.482 -9.614,13.812c-0,0.063 -0,0.125 0.001,0.187c-0.981,-0.324 -2.03,-0.5 -3.119,-0.5c-5.476,-0 -9.921,4.445 -9.921,9.921c0,5.473 4.448,10.001 9.921,10.001l13.079,-0c0.552,-0 1,-0.448 1,-1c-0,-0.552 -0.448,-1 -1,-1Z"/><path d="M108.949,62.472c-0.089,-6.314 -5.243,-11.413 -11.578,-11.413c-0.508,0 -1.009,0.033 -1.5,0.097c-0.547,0.07 -0.934,0.572 -0.863,1.12c0.071,0.547 0.573,0.934 1.121,0.863c0.406,-0.053 0.821,-0.08 1.242,-0.08c5.287,0 9.579,4.292 9.579,9.579c-0,0.414 -0.026,0.823 -0.078,1.224c-0.047,0.371 0.118,0.739 0.427,0.951c0.309,0.212 0.71,0.233 1.04,0.055c0.829,-0.447 1.778,-0.701 2.785,-0.701c3.243,0 5.876,2.633 5.876,5.876c0,3.247 -2.63,5.957 -5.876,5.957l-17.124,-0c-0.552,-0 -1,0.448 -1,1c0,0.552 0.448,1 1,1l17.124,0c4.343,0 7.876,-3.613 7.876,-7.957c0,-4.347 -3.529,-7.876 -7.876,-7.876c-0.755,0 -1.484,0.106 -2.175,0.305Z"/><path d="M35,21.667l0,13.666c0,0.744 0.135,1.472 0.398,2.178c-0.263,0.701 -0.398,1.421 -0.398,2.156l0,13.666c0,0.739 0.137,1.465 0.401,2.17c-0.265,0.703 -0.401,1.426 -0.401,2.164l0,13.666c0,2.978 2.228,5.738 6.093,7.873c5.325,2.941 13.797,4.794 22.907,4.794c6.821,-0 13.286,-1.049 18.33,-2.813c0.521,-0.182 0.796,-0.753 0.614,-1.274c-0.182,-0.521 -0.753,-0.796 -1.274,-0.614c-4.862,1.7 -11.095,2.701 -17.67,2.701c-8.721,0 -16.842,-1.729 -21.94,-4.545c-3.084,-1.703 -5.06,-3.746 -5.06,-6.122l0,-8.939c0.072,0.08 0.145,0.16 0.221,0.24c1.975,2.084 5.271,3.912 9.475,5.254c0.526,0.167 1.089,-0.123 1.257,-0.649c0.167,-0.526 -0.123,-1.089 -0.649,-1.257c-3.818,-1.218 -6.838,-2.832 -8.632,-4.724c-0.936,-0.988 -1.525,-2.043 -1.647,-3.154l0.006,0.003c0.913,1.019 2.117,1.968 3.578,2.824c4.907,2.875 12.756,4.779 21.361,5.038c0.552,0.017 1.013,-0.417 1.03,-0.969c0.016,-0.552 -0.418,-1.013 -0.97,-1.03c-8.217,-0.247 -15.724,-2.019 -20.41,-4.765c-2.825,-1.655 -4.62,-3.614 -4.62,-5.872l0,-8.957c0.976,1.1 2.292,2.128 3.911,3.048c5.21,2.961 13.612,4.909 23.089,4.909c2.09,0 4.128,-0.094 6.091,-0.273c0.549,-0.05 0.955,-0.537 0.905,-1.086c-0.05,-0.55 -0.537,-0.956 -1.087,-0.906c-1.904,0.174 -3.881,0.265 -5.909,0.265c-9.067,0 -17.116,-1.815 -22.101,-4.647c-2.813,-1.599 -4.645,-3.471 -4.875,-5.572c0.074,0.082 0.149,0.163 0.226,0.243c1.994,2.084 5.301,3.879 9.448,5.194c0.526,0.167 1.088,-0.125 1.255,-0.651c0.167,-0.526 -0.125,-1.088 -0.651,-1.255c-3.766,-1.194 -6.796,-2.778 -8.607,-4.67c-1.069,-1.118 -1.695,-2.334 -1.695,-3.642l0,-8.94c0.198,0.222 0.41,0.441 0.636,0.657c2.338,2.231 6.224,4.14 11.108,5.434c0.533,0.142 1.081,-0.177 1.223,-0.71c0.141,-0.534 -0.177,-1.082 -0.711,-1.223c-4.491,-1.191 -8.09,-2.896 -10.24,-4.948c-1.27,-1.212 -2.016,-2.53 -2.016,-3.936c0,-2.283 1.888,-4.308 4.899,-6.019c4.985,-2.833 13.034,-4.648 22.101,-4.648c4.614,-0 8.964,0.473 12.786,1.31c0.539,0.118 1.073,-0.224 1.191,-0.763c0.118,-0.539 -0.224,-1.073 -0.763,-1.191c-3.95,-0.865 -8.446,-1.356 -13.214,-1.356c-9.477,-0 -17.879,1.949 -23.089,4.909c-3.785,2.151 -5.911,4.889 -5.911,7.758Zm58,13.666l0,-13.666c0,-1.748 -0.767,-3.434 -2.221,-4.968c-1.975,-2.083 -5.271,-3.912 -9.475,-5.253c-0.526,-0.168 -1.089,0.123 -1.257,0.648c-0.167,0.526 0.123,1.089 0.649,1.257c3.818,1.218 6.838,2.832 8.632,4.724c1.058,1.117 1.672,2.319 1.672,3.592c0,2.283 -1.888,4.307 -4.899,6.019c-4.985,2.832 -13.034,4.647 -22.101,4.647c-3.842,0 -7.501,-0.327 -10.824,-0.92c-0.544,-0.097 -1.064,0.265 -1.16,0.809c-0.097,0.543 0.265,1.063 0.808,1.16c3.432,0.612 7.21,0.951 11.176,0.951c9.477,0 17.879,-1.948 23.089,-4.909c1.619,-0.92 2.935,-1.948 3.911,-3.048l0,8.957c0,2.351 -1.978,4.387 -5.061,6.093c-5.097,2.82 -13.218,4.574 -21.939,4.574c-4.537,-0 -8.911,-0.471 -12.786,-1.318c-0.54,-0.118 -1.073,0.224 -1.191,0.764c-0.118,0.539 0.224,1.072 0.763,1.19c4.005,0.876 8.525,1.364 13.214,1.364c9.11,-0 17.583,-1.878 22.908,-4.824c1.679,-0.929 3.049,-1.975 4.062,-3.103l0.01,-0.001c-0.158,1.561 -1.222,3.002 -2.899,4.306c-3.064,2.381 -8.126,4.225 -14.239,5.201c-0.545,0.087 -0.916,0.6 -0.83,1.145c0.087,0.545 0.601,0.917 1.146,0.83c6.513,-1.04 11.886,-3.06 15.15,-5.597c0.645,-0.501 1.21,-1.025 1.692,-1.566l0,8.942c0,2.235 -1.796,4.186 -4.621,5.842c-4.686,2.749 -12.192,4.544 -20.41,4.795c-0.551,0.017 -0.985,0.478 -0.969,1.03c0.017,0.552 0.479,0.986 1.031,0.969c8.604,-0.263 16.453,-2.19 21.36,-5.068c1.463,-0.859 2.669,-1.809 3.582,-2.827l0.007,-0.003c-0.209,2.118 -2.047,4.005 -4.879,5.615c-4.985,2.832 -13.034,4.647 -22.101,4.647c-4.614,0 -8.964,-0.472 -12.786,-1.309c-0.539,-0.118 -1.073,0.223 -1.191,0.763c-0.118,0.539 0.224,1.072 0.763,1.19c3.95,0.865 8.446,1.356 13.214,1.356c9.477,0 17.879,-1.948 23.089,-4.909c1.619,-0.92 2.935,-1.948 3.911,-3.048l0,8.957c0,2.455 -2.145,4.566 -5.465,6.311c-0.489,0.257 -0.677,0.862 -0.42,1.351c0.257,0.488 0.862,0.676 1.35,0.42c4.133,-2.174 6.535,-5.026 6.535,-8.082l0,-13.666c0,-0.741 -0.137,-1.467 -0.404,-2.173c0.266,-0.704 0.404,-1.426 0.404,-2.161l0,-13.666c0,-0.742 -0.138,-1.468 -0.405,-2.175c0.267,-0.703 0.405,-1.425 0.405,-2.159Z"/><path d="M24.319,113.093c-1.603,0.43 -2.556,2.081 -2.127,3.684c0.43,1.604 2.081,2.557 3.684,2.127c1.604,-0.43 2.557,-2.08 2.127,-3.684c-0.43,-1.603 -2.08,-2.556 -3.684,-2.127Zm0.518,1.932c0.537,-0.144 1.09,0.175 1.234,0.713c0.144,0.537 -0.175,1.09 -0.713,1.234c-0.537,0.144 -1.09,-0.175 -1.234,-0.713c-0.144,-0.537 0.175,-1.09 0.713,-1.234Z"/><path d="M32.21,110.494c0.711,0.917 1.254,1.987 1.573,3.177c0.429,1.6 2.075,2.55 3.675,2.122c1.599,-0.429 2.549,-2.075 2.121,-3.675c-2.142,-7.992 -10.369,-12.742 -18.362,-10.601c-1.599,0.429 -2.549,2.075 -2.121,3.675c0.429,1.599 2.075,2.549 3.674,2.121c2.364,-0.633 4.762,-0.262 6.739,0.852c0.481,0.271 1.091,0.101 1.362,-0.38c0.271,-0.481 0.101,-1.091 -0.38,-1.362c-2.418,-1.362 -5.349,-1.816 -8.238,-1.042c-0.533,0.143 -1.082,-0.174 -1.225,-0.707c-0.143,-0.533 0.174,-1.082 0.707,-1.225c6.926,-1.856 14.056,2.261 15.912,9.187c0.143,0.533 -0.174,1.082 -0.707,1.225c-0.533,0.143 -1.082,-0.174 -1.225,-0.707c-0.39,-1.456 -1.055,-2.765 -1.925,-3.886c-0.338,-0.436 -0.967,-0.515 -1.403,-0.177c-0.436,0.338 -0.515,0.967 -0.177,1.403Z"/><path d="M22.912,91.083c-1.425,0.126 -2.858,0.377 -4.287,0.76c-1.599,0.428 -2.55,2.075 -2.121,3.674c0.428,1.599 2.075,2.55 3.674,2.121c10.133,-2.715 20.565,3.308 23.28,13.441c0.428,1.599 2.075,2.55 3.674,2.121c1.599,-0.428 2.55,-2.075 2.121,-3.674c-2.812,-10.498 -11.92,-17.642 -22.173,-18.461c-0.551,-0.044 -1.033,0.367 -1.077,0.917c-0.044,0.55 0.367,1.033 0.917,1.077c9.434,0.753 17.814,7.326 20.402,16.985c0.142,0.533 -0.174,1.082 -0.708,1.224c-0.533,0.143 -1.081,-0.174 -1.224,-0.707c-3.001,-11.199 -14.53,-17.855 -25.73,-14.854c-0.533,0.142 -1.082,-0.174 -1.224,-0.708c-0.143,-0.533 0.174,-1.081 0.707,-1.224c1.315,-0.353 2.634,-0.584 3.945,-0.7c0.55,-0.048 0.957,-0.534 0.908,-1.084c-0.049,-0.55 -0.534,-0.957 -1.084,-0.908Z"/><path d="M48.99,99.567c1.823,2.648 3.233,5.647 4.112,8.928c0.428,1.599 2.075,2.55 3.674,2.121c1.599,-0.428 2.55,-2.075 2.121,-3.674c-4.998,-18.655 -24.201,-29.742 -42.856,-24.743c-1.599,0.428 -2.55,2.075 -2.121,3.674c0.428,1.599 2.075,2.55 3.674,2.121c10.689,-2.864 21.596,0.647 28.677,8.197c0.377,0.403 1.011,0.423 1.413,0.045c0.403,-0.377 0.423,-1.011 0.045,-1.413c-7.568,-8.071 -19.227,-11.822 -30.653,-8.76c-0.533,0.142 -1.082,-0.174 -1.224,-0.708c-0.143,-0.533 0.174,-1.081 0.707,-1.224c17.588,-4.713 35.694,5.74 40.407,23.329c0.142,0.533 -0.174,1.082 -0.708,1.224c-0.533,0.143 -1.081,-0.174 -1.224,-0.707c-0.94,-3.507 -2.447,-6.713 -4.396,-9.544c-0.313,-0.455 -0.936,-0.57 -1.391,-0.257c-0.454,0.313 -0.569,0.936 -0.257,1.391Z"/><path d="M103.681,113.093c-1.604,-0.429 -3.254,0.524 -3.684,2.127c-0.43,1.604 0.523,3.254 2.127,3.684c1.603,0.43 3.254,-0.523 3.684,-2.127c0.429,-1.603 -0.524,-3.254 -2.127,-3.684Zm-0.518,1.932c0.538,0.144 0.857,0.697 0.713,1.234c-0.144,0.538 -0.697,0.857 -1.234,0.713c-0.538,-0.144 -0.857,-0.697 -0.713,-1.234c0.144,-0.538 0.697,-0.857 1.234,-0.713Z"/><path d="M92.239,108.572c3.041,-4.362 8.596,-6.578 14.026,-5.123c0.533,0.143 0.85,0.692 0.707,1.225c-0.143,0.533 -0.692,0.85 -1.225,0.707c-5.86,-1.57 -11.892,1.913 -13.462,7.773c-0.143,0.533 -0.692,0.85 -1.225,0.707c-0.533,-0.143 -0.85,-0.692 -0.707,-1.225c0.117,-0.438 0.256,-0.865 0.414,-1.28c0.197,-0.515 -0.062,-1.094 -0.578,-1.29c-0.516,-0.197 -1.094,0.062 -1.291,0.578c-0.182,0.478 -0.342,0.97 -0.477,1.474c-0.428,1.6 0.522,3.246 2.121,3.675c1.6,0.428 3.246,-0.522 3.675,-2.122c1.284,-4.793 6.219,-7.643 11.013,-6.358c1.599,0.428 3.245,-0.522 3.674,-2.121c0.428,-1.6 -0.522,-3.246 -2.121,-3.675c-6.266,-1.678 -12.675,0.878 -16.185,5.911c-0.315,0.453 -0.204,1.077 0.249,1.392c0.453,0.316 1.076,0.205 1.392,-0.248Z"/><path d="M94.372,94.634c4.453,-1.784 9.499,-2.195 14.485,-0.859c0.533,0.143 0.85,0.691 0.707,1.224c-0.142,0.534 -0.691,0.85 -1.224,0.708c-11.2,-3.001 -22.729,3.655 -25.73,14.854c-0.143,0.533 -0.691,0.85 -1.224,0.707c-0.534,-0.142 -0.85,-0.691 -0.708,-1.224c1.55,-5.783 5.175,-10.459 9.859,-13.443c0.466,-0.296 0.603,-0.915 0.306,-1.38c-0.296,-0.466 -0.915,-0.603 -1.38,-0.307c-5.092,3.244 -9.032,8.327 -10.716,14.612c-0.429,1.599 0.522,3.246 2.121,3.674c1.599,0.429 3.246,-0.522 3.674,-2.121c2.715,-10.133 13.147,-16.156 23.28,-13.441c1.599,0.429 3.246,-0.522 3.674,-2.121c0.429,-1.599 -0.522,-3.246 -2.121,-3.674c-5.42,-1.453 -10.905,-1.005 -15.747,0.934c-0.512,0.205 -0.762,0.788 -0.556,1.3c0.205,0.513 0.787,0.762 1.3,0.557Z"/><path d="M73.337,106.701c-0.132,0.421 -0.255,0.846 -0.371,1.276c-0.143,0.533 -0.691,0.85 -1.224,0.707c-0.534,-0.142 -0.85,-0.691 -0.708,-1.224c4.713,-17.589 22.819,-28.042 40.407,-23.329c0.533,0.143 0.85,0.691 0.707,1.224c-0.142,0.534 -0.691,0.85 -1.224,0.708c-14.627,-3.92 -29.634,3.327 -35.957,16.504c-0.239,0.498 -0.029,1.096 0.469,1.335c0.498,0.238 1.095,0.028 1.334,-0.469c5.915,-12.327 19.954,-19.105 33.636,-15.439c1.599,0.429 3.246,-0.522 3.674,-2.121c0.429,-1.599 -0.522,-3.246 -2.121,-3.674c-18.655,-4.999 -37.858,6.088 -42.856,24.743c-0.429,1.599 0.522,3.246 2.121,3.674c1.599,0.429 3.246,-0.522 3.674,-2.121c0.108,-0.403 0.224,-0.801 0.348,-1.196c0.165,-0.526 -0.128,-1.088 -0.655,-1.253c-0.527,-0.165 -1.088,0.128 -1.254,0.655Z"/></g></svg>